<svg
  width="25"
  height="21"
  viewBox="0 0 25 21"
  fill="none"
  xmlns="http://www.w3.org/2000/svg"
  class="team-logo"
>
  <path
    d="M25 10.5C25 7.71527 23.9464 5.04452 22.071 3.07539C20.1956 1.10625 17.652 3.6518e-07 14.9998 0C12.3476 -3.65179e-07 9.80399 1.10625 7.92858 3.07539C6.05316 5.04452 4.99957 7.71527 4.99957 10.5H8.12468C9.16024 10.5 9.96786 9.58884 10.3472 8.57705C10.5962 7.91278 10.9741 7.30231 11.4641 6.78769C12.4019 5.80313 13.6737 5.25001 14.9998 5.25001C16.3259 5.25001 17.5977 5.80313 18.5354 6.78769C19.4731 7.77226 19.9999 9.10765 19.9999 10.5H25Z"
    fill="#0D9488"
  />
  <path
    d="M19.2392 14.5182C19.7417 13.2442 20.0004 11.8788 20.0004 10.5H25C25 16.299 20.5227 21 14.9998 21C14.1348 21 13.2955 20.8847 12.4951 20.668C12.948 20.5455 13.3931 20.3894 13.8271 20.2007C15.0404 19.673 16.1428 18.8996 17.0714 17.9246C18 16.9496 18.7367 15.7921 19.2392 14.5182Z"
    fill="#FDBA74"
  />
  <path
    d="M0 10.5C-1.87871e-07 11.8789 0.258663 13.2443 0.761219 14.5182C1.26378 15.7922 2.00039 16.9497 2.92899 17.9247C3.85759 18.8996 4.96001 19.6731 6.17329 20.2008C7.38656 20.7285 8.68694 21 10.0002 21C11.3134 21 12.6138 20.7285 13.8271 20.2008C15.0404 19.6731 16.1428 18.8996 17.0714 17.9247C18 16.9497 18.7366 15.7922 19.2392 14.5182C19.7417 13.2443 20.0004 11.8789 20.0004 10.5H16.8753C15.8398 10.5 15.0321 11.4112 14.6528 12.4229C14.6421 12.4517 14.631 12.4804 14.6197 12.5091C14.3684 13.1461 14.0001 13.7249 13.5358 14.2123C13.0715 14.6998 12.5203 15.0866 11.9137 15.3504C11.307 15.6143 10.6569 15.7501 10.0002 15.7501C9.34358 15.7501 8.69339 15.6143 8.08678 15.3504C7.4801 15.0866 6.92893 14.6998 6.46459 14.2123C6.00029 13.7249 5.63199 13.1461 5.38072 12.5091C5.12943 11.8721 5.0001 11.1895 5.0001 10.5H0Z"
    fill="#FB923C"
  />
  <path
    d="M0.0010376 10.5C0.0010376 4.701 4.47827 0 10.0012 0C10.8659 0 11.705 0.115234 12.5053 0.331883C10.7881 0.796381 9.2039 1.7364 7.92859 3.07539C6.0532 5.04451 4.99962 7.71527 4.99962 10.5H0.0010376Z"
    fill="#2DD4BF"
  />
</svg>
